<svg width="33" height="32" viewBox="0 0 33 32" fill="none" xmlns="http://www.w3.org/2000/svg">
<path d="M7.03627 18.8071C6.71675 16.7302 8.32365 14.8572 10.425 14.8572H23.0036C25.105 14.8572 26.7119 16.7302 26.3923 18.8071L25.1616 26.8071C24.9043 28.4797 23.4651 29.7143 21.7729 29.7143H11.6557C9.9635 29.7143 8.52435 28.4797 8.26704 26.8071L7.03627 18.8071Z" fill="#48BA28"/>
<path d="M15.6481 12.5711C17.2981 12.5711 17.8572 12.0696 17.8572 10.2998C17.8572 8.20929 17.1044 6.1388 15.6418 4.62161C14.5654 3.54836 13.2387 3.42357 12.0309 3.36118C10.9545 3.29878 9.87816 3.23637 8.98952 2.47511C8.80178 2.28792 8.48262 2.22553 8.2323 2.35033C7.98198 2.47513 7.78797 2.66855 7.72539 2.98054C7.21849 5.75725 7.97572 8.40917 9.81558 10.2998C11.2111 11.6913 13.2951 12.5711 15.6418 12.5711H15.6481Z" fill="#48BA28"/>
<path d="M17.7805 12.5711C16.1305 12.5711 15.5714 12.0696 15.5714 10.2998C15.5714 8.20929 16.3242 6.1388 17.7868 4.62161C18.8632 3.54836 20.1899 3.42357 21.3977 3.36118C22.4741 3.29878 23.5504 3.23637 24.4391 2.47511C24.6268 2.28792 24.946 2.22553 25.1963 2.35033C25.4466 2.47513 25.6406 2.66855 25.7032 2.98054C26.2101 5.75725 25.4529 8.40917 23.613 10.2998C22.2175 11.6913 20.1336 12.5711 17.7868 12.5711H17.7805Z" fill="#48BA28"/>
<path d="M16.7891 17.1426C16.1292 17.1426 15.5714 16.7979 15.5714 16.3968V9.82621C15.5714 9.42508 16.1385 9.14258 16.6962 9.14258C17.3562 9.14258 17.8209 9.48721 17.8209 9.88269V16.4533C18.0068 16.7979 17.4491 17.1369 16.7891 17.1369V17.1426Z" fill="#48BA28"/>
</svg>
