<svg width="33" height="32" viewBox="0 0 33 32" fill="none" xmlns="http://www.w3.org/2000/svg">
<g clip-path="url(#clip0_708_14591)">
<rect x="6" y="2.28564" width="20.5714" height="18.2857" rx="3.42857" fill="#48BA28"/>
<g filter="url(#filter0_d_708_14591)">
<path d="M6.50793 16.0001H3.71428L16.2857 29.7144L28.8571 16.0001H26.0635" fill="#48BA28"/>
<path d="M6.50793 16.0001H3.71428L16.2857 29.7144L28.8571 16.0001H26.0635" stroke="#48BA28" stroke-width="2.28571" stroke-linecap="round" stroke-linejoin="round"/>
</g>
<path d="M13.6262 15.7635C13.6262 16.2009 13.7009 16.5742 13.8502 16.8835C13.9995 17.1929 14.2075 17.4489 14.4742 17.6515C14.7409 17.8435 15.0449 17.9875 15.3862 18.0835C15.7382 18.1689 16.1169 18.2115 16.5222 18.2115C16.9595 18.2115 17.3329 18.1635 17.6422 18.0675C17.9515 17.9609 18.2022 17.8275 18.3942 17.6675C18.5862 17.5075 18.7249 17.3262 18.8102 17.1235C18.8955 16.9102 18.9382 16.6969 18.9382 16.4835C18.9382 16.0462 18.8369 15.7262 18.6342 15.5235C18.4422 15.3102 18.2289 15.1609 17.9942 15.0755C17.5889 14.9262 17.1142 14.7875 16.5702 14.6595C16.0369 14.5209 15.3755 14.3449 14.5862 14.1315C14.0955 14.0035 13.6849 13.8382 13.3542 13.6355C13.0342 13.4222 12.7782 13.1875 12.5862 12.9315C12.3942 12.6755 12.2555 12.4035 12.1702 12.1155C12.0955 11.8275 12.0582 11.5342 12.0582 11.2355C12.0582 10.6595 12.1755 10.1635 12.4102 9.74753C12.6555 9.32087 12.9755 8.96887 13.3702 8.69153C13.7649 8.4142 14.2129 8.21153 14.7142 8.08353C15.2155 7.94487 15.7222 7.87553 16.2342 7.87553C16.8315 7.87553 17.3915 7.95553 17.9142 8.11553C18.4475 8.26487 18.9115 8.4942 19.3062 8.80353C19.7115 9.11287 20.0315 9.49687 20.2662 9.95553C20.5009 10.4035 20.6182 10.9262 20.6182 11.5235H18.6182C18.5649 10.7875 18.3142 10.2702 17.8662 9.97153C17.4182 9.6622 16.8475 9.50753 16.1542 9.50753C15.9195 9.50753 15.6795 9.5342 15.4342 9.58753C15.1889 9.6302 14.9649 9.7102 14.7622 9.82753C14.5595 9.9342 14.3889 10.0835 14.2502 10.2755C14.1222 10.4675 14.0582 10.7075 14.0582 10.9955C14.0582 11.4009 14.1809 11.7209 14.4262 11.9555C14.6822 12.1795 15.0129 12.3502 15.4182 12.4675C15.4609 12.4782 15.6262 12.5262 15.9142 12.6115C16.2129 12.6862 16.5435 12.7715 16.9062 12.8675C17.2689 12.9635 17.6209 13.0595 17.9622 13.1555C18.3142 13.2409 18.5649 13.3049 18.7142 13.3475C19.0875 13.4649 19.4129 13.6249 19.6902 13.8275C19.9675 14.0302 20.1969 14.2649 20.3782 14.5315C20.5702 14.7875 20.7089 15.0649 20.7942 15.3635C20.8902 15.6622 20.9382 15.9609 20.9382 16.2595C20.9382 16.8995 20.8049 17.4489 20.5382 17.9075C20.2822 18.3555 19.9409 18.7235 19.5142 19.0115C19.0875 19.2995 18.6022 19.5075 18.0582 19.6355C17.5142 19.7742 16.9595 19.8435 16.3942 19.8435C15.7435 19.8435 15.1302 19.7635 14.5542 19.6035C13.9782 19.4435 13.4769 19.1982 13.0502 18.8675C12.6235 18.5369 12.2822 18.1155 12.0262 17.6035C11.7702 17.0809 11.6369 16.4675 11.6262 15.7635H13.6262Z" fill="white"/>
<rect x="15.4286" y="5.71436" width="1.71429" height="16" rx="0.857143" fill="white"/>
</g>
<defs>
<filter id="filter0_d_708_14591" x="0.285682" y="12.5715" width="36.5715" height="25.1429" filterUnits="userSpaceOnUse" color-interpolation-filters="sRGB">
<feFlood flood-opacity="0" result="BackgroundImageFix"/>
<feColorMatrix in="SourceAlpha" type="matrix" values="0 0 0 0 0 0 0 0 0 0 0 0 0 0 0 0 0 0 127 0" result="hardAlpha"/>
<feOffset dx="2.28571" dy="2.28571"/>
<feGaussianBlur stdDeviation="2.28571"/>
<feComposite in2="hardAlpha" operator="out"/>
<feColorMatrix type="matrix" values="0 0 0 0 0.439216 0 0 0 0 0.396078 0 0 0 0 0.941176 0 0 0 0.1 0"/>
<feBlend mode="normal" in2="BackgroundImageFix" result="effect1_dropShadow_708_14591"/>
<feBlend mode="normal" in="SourceGraphic" in2="effect1_dropShadow_708_14591" result="shape"/>
</filter>
<clipPath id="clip0_708_14591">
<rect width="32" height="32" fill="white" transform="translate(0.285721)"/>
</clipPath>
</defs>
</svg>
