<svg width="24" height="24" viewBox="0 0 24 24" fill="none" xmlns="http://www.w3.org/2000/svg">
<path d="M9.60002 20.4C10.2628 20.4 10.8 19.8627 10.8 19.2C10.8 18.5373 10.2628 18 9.60002 18C8.93728 18 8.40002 18.5373 8.40002 19.2C8.40002 19.8627 8.93728 20.4 9.60002 20.4Z" fill="#48BA28" stroke="#48BA28" stroke-width="1.2" stroke-linecap="round" stroke-linejoin="round"/>
<path d="M18 20.4C18.6627 20.4 19.2 19.8627 19.2 19.2C19.2 18.5373 18.6627 18 18 18C17.3372 18 16.8 18.5373 16.8 19.2C16.8 19.8627 17.3372 20.4 18 20.4Z" fill="#48BA28" stroke="#48BA28" stroke-width="1.2" stroke-linecap="round" stroke-linejoin="round"/>
<path d="M3.59998 4.80005H6.65452L8.70107 14.4406C8.7709 14.7721 8.96216 15.0698 9.24137 15.2818C9.52059 15.4937 9.86996 15.6063 10.2283 15.5998H17.6509C18.0093 15.6063 18.3586 15.4937 18.6379 15.2818C18.9171 15.0698 19.1083 14.7721 19.1782 14.4406L20.4 8.39996H7.41816" stroke="#48BA28" stroke-width="2.4" stroke-linecap="round" stroke-linejoin="round"/>
</svg>
