<svg width="24" height="24" viewBox="0 0 24 24" fill="none" xmlns="http://www.w3.org/2000/svg">
<path d="M11.5111 2.01157C6.18608 2.26306 1.98389 6.66193 2.00005 11.9499C2.00496 13.5605 2.39696 15.0806 3.08845 16.4238L2.02676 21.5357C1.96933 21.8122 2.22075 22.0544 2.49769 21.9893L7.54756 20.8026C8.84495 21.4436 10.3022 21.8139 11.8444 21.8372C17.2871 21.9197 21.8254 17.633 21.995 12.2363C22.1769 6.45142 17.3635 1.7351 11.5111 2.01157ZM17.5367 17.4111C16.0578 18.8781 14.0915 19.6859 12 19.6859C10.7754 19.6859 9.60294 19.4134 8.51511 18.8759L7.81186 18.5284L4.71577 19.256L5.36748 16.118L5.02101 15.445C4.45629 14.348 4.16995 13.1617 4.16995 11.9192C4.16995 9.84458 4.98441 7.89421 6.4633 6.42722C7.92899 4.97338 9.92737 4.15236 12.0002 4.15236C14.0916 4.15241 16.0578 4.96028 17.5367 6.42717C19.0156 7.89411 19.8301 9.84449 19.8301 11.919C19.8301 13.9751 19.0024 15.9573 17.5367 17.4111Z" fill="#EBFEE6"/>
<path d="M16.8526 14.0703L14.9156 13.5186C14.661 13.4461 14.3867 13.5178 14.2012 13.7053L13.7275 14.184C13.5278 14.3859 13.2247 14.4507 12.9604 14.3446C12.0441 13.9768 10.1166 12.2769 9.62432 11.4266C9.48231 11.1813 9.50579 10.8747 9.68016 10.6509L10.0937 10.1202C10.2557 9.91225 10.2899 9.63301 10.1828 9.39266L9.36783 7.5644C9.17263 7.1265 8.60849 6.99903 8.23994 7.30821C7.69933 7.76175 7.05789 8.45095 6.97992 9.21449C6.84244 10.5607 7.42447 12.2576 9.62543 14.2952C12.1681 16.6493 14.2043 16.9603 15.5301 16.6417C16.282 16.461 16.883 15.7368 17.2622 15.1438C17.5208 14.7394 17.3166 14.2025 16.8526 14.0703Z" fill="#EBFEE6"/>
</svg>
